<?xml version="1.0" standalone="no"?>
<!DOCTYPE svg PUBLIC "-//W3C//DTD SVG 20010904//EN"
 "http://www.w3.org/TR/2001/REC-SVG-20010904/DTD/svg10.dtd">
<svg version="1.0" xmlns="http://www.w3.org/2000/svg"
 width="512.000000pt" height="512.000000pt" viewBox="0 0 512.000000 512.000000"
 preserveAspectRatio="xMidYMid meet">
<metadata>
Created by potrace 1.14, written by Peter Selinger 2001-2017
</metadata>
<g transform="translate(0.000000,512.000000) scale(0.100000,-0.100000)"
fill="#000000" stroke="none">
<path d="M0 2560 l0 -2560 2560 0 2560 0 0 2560 0 2560 -2560 0 -2560 0 0
-2560z m635 -1680 l0 -315 -46 -3 c-46 -3 -71 10 -81 40 -3 7 -18 2 -43 -15
-31 -21 -52 -27 -93 -27 -123 0 -192 87 -192 241 0 154 91 253 216 234 24 -3
57 -17 73 -31 16 -13 32 -24 35 -24 3 0 6 42 6 94 0 115 9 129 79 124 l46 -3
0 -315z m1485 300 c7 -12 9 -123 8 -317 l-3 -298 -39 -3 c-57 -5 -86 5 -86 28
0 11 -7 20 -15 20 -8 0 -15 -4 -15 -9 0 -18 -69 -41 -123 -41 -69 0 -123 36
-157 106 -33 67 -34 199 -2 260 58 113 173 145 271 75 16 -11 31 -18 35 -14 3
3 6 50 6 104 0 108 -2 106 72 108 28 1 40 -4 48 -19z m-1098 -151 c20 -5 53
-25 73 -43 l35 -34 -2 -193 -3 -194 -48 -3 c-43 -3 -48 -1 -57 23 l-10 26 -47
-26 c-81 -43 -165 -32 -222 29 -19 20 -24 37 -25 80 0 49 3 59 32 89 37 38 96
57 176 57 69 0 86 7 86 35 0 69 -93 95 -148 42 -25 -24 -37 -28 -73 -25 -36 2
-45 7 -47 25 -5 34 59 98 110 111 83 22 86 22 170 1z m464 2 c64 -17 131 -96
109 -130 -3 -6 -26 -11 -51 -11 -38 0 -49 5 -71 30 -20 24 -33 30 -64 30 -36
0 -79 -26 -79 -47 1 -25 41 -46 115 -63 91 -20 103 -25 130 -48 51 -45 55
-107 9 -168 -35 -48 -80 -64 -173 -64 -98 0 -148 21 -186 79 -36 53 -26 71 37
71 43 0 53 -4 82 -35 26 -27 41 -35 68 -35 34 0 78 29 78 52 0 18 -31 48 -49
48 -49 0 -157 37 -187 65 -60 57 -51 148 18 199 28 20 131 47 158 41 8 -2 34
-9 56 -14z m999 3 c22 -3 54 -15 71 -25 54 -33 59 -53 59 -258 l0 -186 -34 -3
c-51 -5 -81 5 -81 28 0 25 -6 25 -55 -5 -50 -31 -136 -34 -177 -7 -48 32 -68
66 -68 118 0 91 76 144 207 144 78 0 98 14 82 58 -20 58 -77 67 -134 22 -29
-23 -48 -30 -81 -30 -23 0 -45 4 -49 10 -10 17 22 77 55 100 34 24 124 51 150
45 8 -2 33 -7 55 -11z m549 -38 c18 -13 39 -39 46 -56 16 -39 4 -50 -53 -50
-30 0 -45 7 -67 30 -22 23 -37 30 -66 30 -38 0 -74 -22 -74 -46 0 -21 48 -52
93 -59 70 -11 131 -35 160 -63 22 -21 27 -34 27 -75 0 -99 -67 -147 -204 -147
-100 0 -140 16 -180 73 -40 54 -32 71 31 75 45 3 54 0 68 -21 42 -65 155 -58
155 9 0 28 -12 34 -120 61 -58 14 -83 26 -114 55 -37 35 -38 40 -34 86 8 82
54 126 149 140 66 10 137 -6 183 -42z"/>
<path d="M372 927 c-83 -47 -82 -220 2 -258 37 -17 92 -3 116 30 15 22 20 45
20 96 0 78 -19 119 -63 135 -38 13 -47 12 -75 -3z"/>
<path d="M1863 930 c-27 -11 -61 -63 -69 -106 -7 -39 10 -104 35 -133 12 -14
36 -25 59 -28 33 -4 44 -1 73 25 30 26 33 36 37 94 5 80 -14 123 -63 144 -39
16 -42 16 -72 4z"/>
<path d="M880 752 c-73 -36 -36 -112 48 -99 42 7 82 46 82 81 0 40 -68 49
-130 18z"/>
<path d="M2363 754 c-27 -14 -33 -22 -33 -50 0 -80 133 -70 160 12 10 30 10
38 -1 45 -22 14 -91 10 -126 -7z"/>
</g>
</svg>
